
<svg width="300px" height="85px" viewBox="0 0 300 85" version="1.1" xmlns="http://www.w3.org/2000/svg" xmlns:xlink="http://www.w3.org/1999/xlink">
    <!-- Generator: Sketch 3.8.3 (29802) - http://www.bohemiancoding.com/sketch -->
    <desc>Created with Sketch.</desc>
    <defs></defs>
    <g id="nav_logo" stroke="none" stroke-width="1" fill="none" fill-rule="evenodd">
        <g id="Imported-Layers-Copy">
            <g id="Page-1">
                <g id="Home---Desktop-Copy-2">
                    <g id="Imported-Layers-Copy" transform="translate(0.000000, 1.239669)">
                        <g id="Group" transform="translate(78.998363, 11.515964)" fill="#313940">
                            <path d="M8.97793202,38.028326 C8.97793202,46.1341227 8.3549642,48.7893751 6.69410621,50.7460009 C5.24090417,52.3533136 2.81877092,53.1215668 0.0498950985,53.3316265 L0.672862941,58.1531712 C3.92561998,58.1531712 8.3549642,57.0352118 11.0544915,54.3103329 C14.0302441,51.2353542 15.0685238,46.9727891 15.0685238,40.4042851 L15.0685238,9.72687741 L8.97793202,9.72687741 L8.97793202,38.028326" id="Fill-1"></path>
                            <path d="M54.4487405,34.324741 C54.4487405,37.818266 54.5176993,40.893245 54.7253554,43.5484971 L49.32708,43.5484971 L48.9811165,38.028326 L48.8428091,38.028326 C47.2505204,40.7535984 43.7211486,44.3171435 37.7692537,44.3171435 C32.5092858,44.3171435 26.2110382,41.3822048 26.2110382,29.5031963 L26.2110382,9.72687741 L32.3016298,9.72687741 L32.3016298,28.4544699 C32.3016298,34.8833274 34.2394924,39.2163057 39.7764647,39.2163057 C43.859456,39.2163057 46.6969012,36.3509933 47.8045294,33.6253277 C48.1504926,32.7174283 48.3581487,31.5990754 48.3581487,30.4811157 L48.3581487,9.72687741 L54.4487405,9.72687741 L54.4487405,34.324741" id="Fill-2"></path>
                            <path d="M65.9383869,20.7680063 C65.9383869,16.4358148 65.8000795,12.9415028 65.6613826,9.72687741 L71.1290063,9.72687741 L71.4060109,15.5271284 L71.5443183,15.5271284 C74.0358,11.4042101 77.9808734,8.95823105 83.4484974,8.95823105 C91.5459107,8.95823105 97.6361127,15.8764416 97.6361127,26.1489243 C97.6361127,38.3076193 90.299975,44.3171435 82.4102177,44.3171435 C77.9808734,44.3171435 74.1051486,42.3605177 72.0979376,39.0062457 L71.9596302,39.0062457 L71.9596302,57.3845249 L65.9383869,57.3845249 L65.9383869,20.7680063 L65.9383869,20.7680063 L65.9383869,20.7680063 Z M71.9596302,29.7824893 C71.9596302,30.6911757 72.0979376,31.5294486 72.2366345,32.298095 C73.3438733,36.5606601 77.0119423,39.4955988 81.371938,39.4955988 C87.8084931,39.4955988 91.5459107,34.184701 91.5459107,26.4282174 C91.5459107,19.6500468 88.0161491,13.8497958 81.5795938,13.8497958 C77.4272541,13.8497958 73.5515293,16.8547546 72.374942,21.4666327 C72.1672862,22.2352791 71.9596302,23.143572 71.9596302,23.9822384 L71.9596302,29.7824893 L71.9596302,29.7824893 L71.9596302,29.7824893 Z" id="Fill-3"></path>
                            <path d="M108.433832,9.72687741 L115.769581,29.7124693 C116.531246,31.9487819 117.36148,34.604034 117.915489,36.6306801 L118.053796,36.6306801 C118.676374,34.604034 119.368691,32.0184084 120.198925,29.5724293 L126.843136,9.72687741 L133.279691,9.72687741 L124.143998,33.8353877 C119.784002,45.4351031 116.80786,51.3750007 112.655521,55.0089593 C109.679378,57.6638182 106.703236,58.7125445 105.180686,58.9918376 L103.658135,53.8209798 C105.180686,53.3316265 107.187897,52.3533136 108.987452,50.8160209 C110.64831,49.4880015 112.724869,47.1124359 114.108723,43.9678304 C114.385338,43.339224 114.592993,42.8498707 114.592993,42.5005577 C114.592993,42.1508512 114.454686,41.6618913 114.177682,40.893245 L101.789621,9.72687741 L108.433832,9.72687741" id="Fill-4"></path>
                            <path d="M149.29686,0.0137679747 L149.29686,9.72687741 L158.017242,9.72687741 L158.017242,14.4091689 L149.29686,14.4091689 L149.29686,32.6474083 C149.29686,36.8399531 150.473448,39.2163057 153.864902,39.2163057 C155.456411,39.2163057 156.632999,39.0062457 157.394274,38.7969724 L157.671278,43.4084571 C156.494691,43.8978104 154.625788,44.2471235 152.273003,44.2471235 C149.435168,44.2471235 147.151342,43.339224 145.697751,41.6618913 C143.967544,39.8449121 143.344966,36.8399531 143.344966,32.8566816 L143.344966,14.4091689 L138.154346,14.4091689 L138.154346,9.72687741 L143.344966,9.72687741 L143.344966,1.62108067 L149.29686,0.0137679747" id="Fill-5"></path>
                            <path d="M169.229494,27.7558436 C169.367801,36.0713068 174.627769,39.4955988 180.718361,39.4955988 C185.078357,39.4955988 187.708146,38.7269524 189.991972,37.7482463 L191.030251,42.1508512 C188.884733,43.129164 185.217054,44.2471235 179.887737,44.2471235 C169.575457,44.2471235 163.415907,37.3993264 163.415907,27.1968637 C163.415907,16.9944012 169.367801,8.95823105 179.126462,8.95823105 C190.06171,8.95823105 192.968114,18.6713405 192.968114,24.8909246 C192.968114,26.1489243 192.829807,27.1268437 192.760458,27.7558436 L169.229494,27.7558436 L169.229494,27.7558436 L169.229494,27.7558436 Z M187.085178,23.353632 C187.154527,19.4399868 185.493669,13.3604426 178.641802,13.3604426 C172.482251,13.3604426 169.783113,19.0906737 169.298843,23.353632 L187.085178,23.353632 L187.085178,23.353632 L187.085178,23.353632 Z" id="Fill-6"></path>
                            <path d="M201.89693,20.2786532 C201.89693,16.2957748 201.827582,12.8714828 201.619926,9.72687741 L206.949242,9.72687741 L207.156898,16.3657948 L207.433513,16.3657948 C208.956453,11.8235433 212.624522,8.95823105 216.707513,8.95823105 C217.39983,8.95823105 217.88449,9.02825102 218.438109,9.168291 L218.438109,14.9677553 C217.815142,14.8285021 217.192174,14.7584821 216.36155,14.7584821 C212.070513,14.7584821 209.025802,18.0427341 208.195178,22.6546122 C208.056481,23.4928852 207.918174,24.4715915 207.918174,25.519531 L207.918174,43.5484971 L201.89693,43.5484971 L201.89693,20.2786532" id="Fill-7"></path>
                        </g>
                        <g id="Group">
                            <path d="M58.0357755,5.48735259 C58.1700107,8.65023144 55.7393978,11.3234731 52.6056488,11.4589905 C49.4734981,11.5945079 46.8247532,9.14067531 46.6905181,5.97779643 C46.5562832,2.81491758 48.9868961,0.140869278 52.119846,0.00535189807 C55.2527955,-0.130165482 57.9015404,2.32447373 58.0357755,5.48735259" id="Fill-8" fill="#767474"></path>
                            <path d="M30.9272167,61.4436491 C18.4281579,61.4436491 7.54380997,56.9036673 1.87737062,50.19714 C6.16544026,62.2206533 17.5523727,70.817096 30.9272167,70.817096 C44.3020607,70.817096 55.6889931,62.2206533 59.9770629,50.19714 C54.3106235,56.9036673 43.4262756,61.4436491 30.9272167,61.4436491" id="Fill-9" fill="#E46E2E"></path>
                            <path d="M30.9272167,17.7913631 C43.4262756,17.7913631 54.3106235,22.3307639 59.9770629,29.0378722 C55.6889931,17.0143591 44.3020607,8.41733504 30.9272167,8.41733504 C17.5523727,8.41733504 6.16544026,17.0143591 1.87737062,29.0378722 C7.54380997,22.3307639 18.4281579,17.7913631 30.9272167,17.7913631" id="Fill-10" fill="#E46E2E"></path>
                            <path d="M16.2025093,74.7167502 C16.3618317,78.4740957 13.4735213,81.6502034 9.75152871,81.8118352 C6.02953614,81.9726709 2.88331267,79.0569263 2.72399026,75.2995807 C2.56387912,71.5422352 5.45218954,68.3653314 9.17418213,68.2044957 C12.8961747,68.04366 16.0431869,70.9594046 16.2025093,74.7167502" id="Fill-11" fill="#767474"></path>
                            <path d="M4.30152164,15.1839297 C2.02565901,15.2822191 0.101268742,13.4994237 0.00390140209,11.2012078 C-0.094257542,8.90379102 1.67181185,6.96117528 3.94846607,6.86288581 C6.22432869,6.76459631 8.14871896,8.54739176 8.24608629,10.8448085 C8.34424525,13.1430244 6.57738424,15.0856402 4.30152164,15.1839297 L4.30152164,15.1839297 Z" id="Fill-12" fill="#767474"></path>
                        </g>
                    </g>
                </g>
            </g>
        </g>
    </g>
</svg>